<svg xmlns="http://www.w3.org/2000/svg" xmlns:xlink="http://www.w3.org/1999/xlink" width="40" zoomAndPan="magnify" viewBox="0 0 30 30.000001" height="40" preserveAspectRatio="xMidYMid meet" version="1.0"><defs><clipPath id="8efdb7b6b4"><path d="M 0.484375 0 L 29.515625 0 L 29.515625 29 L 0.484375 29 Z M 0.484375 0 " clip-rule="nonzero"/></clipPath><clipPath id="5bd43a9c31"><path d="M 8 5 L 22 5 L 22 29.03125 L 8 29.03125 Z M 8 5 " clip-rule="nonzero"/></clipPath></defs><g clip-path="url(#8efdb7b6b4)"><path fill="#0866ff" d="M 29.519531 14.519531 C 29.519531 6.5 23.019531 0 15.003906 0 C 6.984375 0 0.484375 6.5 0.484375 14.519531 C 0.484375 21.328125 5.171875 27.042969 11.496094 28.609375 L 11.496094 18.957031 L 8.5 18.957031 L 8.5 14.519531 L 11.496094 14.519531 L 11.496094 12.605469 C 11.496094 7.664062 13.730469 5.375 18.582031 5.375 C 19.503906 5.375 21.089844 5.554688 21.738281 5.734375 L 21.738281 9.757812 C 21.394531 9.722656 20.800781 9.703125 20.0625 9.703125 C 17.679688 9.703125 16.761719 10.605469 16.761719 12.949219 L 16.761719 14.515625 L 21.503906 14.515625 L 20.6875 18.953125 L 16.761719 18.953125 L 16.761719 28.929688 C 23.949219 28.0625 29.519531 21.941406 29.519531 14.515625 Z M 29.519531 14.519531 " fill-opacity="1" fill-rule="nonzero"/></g><g clip-path="url(#5bd43a9c31)"><path fill="#ffffff" d="M 20.6875 18.953125 L 21.503906 14.515625 L 16.761719 14.515625 L 16.761719 12.949219 C 16.761719 10.605469 17.683594 9.703125 20.0625 9.703125 C 20.800781 9.703125 21.398438 9.722656 21.738281 9.757812 L 21.738281 5.734375 C 21.089844 5.554688 19.503906 5.375 18.582031 5.375 C 13.730469 5.375 11.496094 7.664062 11.496094 12.605469 L 11.496094 14.519531 L 8.5 14.519531 L 8.5 18.957031 L 11.496094 18.957031 L 11.496094 28.609375 C 12.621094 28.890625 13.792969 29.039062 15.003906 29.039062 C 15.597656 29.039062 16.1875 29 16.761719 28.929688 L 16.761719 18.957031 L 20.691406 18.957031 Z M 20.6875 18.953125 " fill-opacity="1" fill-rule="nonzero"/></g></svg>