<svg xmlns="http://www.w3.org/2000/svg" xmlns:xlink="http://www.w3.org/1999/xlink" width="40" zoomAndPan="magnify" viewBox="0 0 30 30.000001" height="40" preserveAspectRatio="xMidYMid meet" version="1.0"><defs><clipPath id="748ecc7814"><path d="M 0.484375 0.101562 L 29.515625 0.101562 L 29.515625 29.03125 L 0.484375 29.03125 Z M 0.484375 0.101562 " clip-rule="nonzero"/></clipPath></defs><g clip-path="url(#748ecc7814)"><path fill="#000000" d="M 29.519531 14.617188 C 29.519531 15.570312 29.429688 16.515625 29.242188 17.453125 C 29.054688 18.386719 28.78125 19.292969 28.417969 20.175781 C 28.050781 21.054688 27.605469 21.890625 27.074219 22.683594 C 26.542969 23.476562 25.941406 24.210938 25.269531 24.886719 C 24.59375 25.558594 23.863281 26.160156 23.070312 26.691406 C 22.277344 27.21875 21.4375 27.667969 20.558594 28.03125 C 19.679688 28.398438 18.769531 28.671875 17.835938 28.859375 C 16.898438 29.042969 15.957031 29.136719 15.003906 29.136719 C 14.050781 29.136719 13.105469 29.042969 12.171875 28.859375 C 11.234375 28.671875 10.328125 28.398438 9.445312 28.03125 C 8.566406 27.667969 7.730469 27.21875 6.9375 26.691406 C 6.144531 26.160156 5.410156 25.558594 4.734375 24.886719 C 4.0625 24.210938 3.460938 23.476562 2.929688 22.683594 C 2.402344 21.890625 1.953125 21.054688 1.589844 20.175781 C 1.222656 19.292969 0.949219 18.386719 0.761719 17.453125 C 0.578125 16.515625 0.484375 15.570312 0.484375 14.617188 C 0.484375 13.664062 0.578125 12.722656 0.761719 11.785156 C 0.949219 10.851562 1.222656 9.945312 1.589844 9.0625 C 1.953125 8.183594 2.402344 7.34375 2.929688 6.550781 C 3.460938 5.761719 4.0625 5.027344 4.734375 4.351562 C 5.410156 3.679688 6.144531 3.078125 6.9375 2.546875 C 7.730469 2.015625 8.566406 1.570312 9.445312 1.207031 C 10.328125 0.839844 11.234375 0.566406 12.171875 0.378906 C 13.105469 0.191406 14.050781 0.101562 15.003906 0.101562 C 15.957031 0.101562 16.898438 0.191406 17.835938 0.378906 C 18.769531 0.566406 19.679688 0.839844 20.558594 1.207031 C 21.4375 1.570312 22.277344 2.015625 23.070312 2.546875 C 23.863281 3.078125 24.59375 3.679688 25.269531 4.351562 C 25.941406 5.027344 26.542969 5.761719 27.074219 6.550781 C 27.605469 7.34375 28.050781 8.183594 28.417969 9.0625 C 28.78125 9.945312 29.054688 10.851562 29.242188 11.785156 C 29.429688 12.722656 29.519531 13.664062 29.519531 14.617188 Z M 29.519531 14.617188 " fill-opacity="1" fill-rule="nonzero"/></g><path fill="#25f4ee" d="M 13.074219 12.542969 L 13.074219 11.753906 C 12.8125 11.71875 12.542969 11.699219 12.269531 11.699219 C 8.972656 11.699219 6.292969 14.378906 6.292969 17.675781 C 6.292969 19.699219 7.300781 21.488281 8.84375 22.570312 C 7.847656 21.5 7.257812 20.070312 7.257812 18.5 C 7.257812 15.25 9.84375 12.617188 13.074219 12.542969 Z M 13.074219 12.542969 " fill-opacity="1" fill-rule="nonzero"/><path fill="#25f4ee" d="M 13.214844 21.246094 C 14.6875 21.246094 15.902344 20.058594 15.957031 18.601562 L 15.972656 5.605469 L 18.328125 5.605469 C 18.328125 5.605469 18.324219 5.585938 18.324219 5.585938 C 18.273438 5.320312 18.246094 5.042969 18.246094 4.761719 L 15 4.761719 L 14.996094 17.777344 C 14.941406 19.238281 13.742188 20.40625 12.269531 20.40625 C 11.8125 20.40625 11.382812 20.292969 11.003906 20.09375 C 11.5 20.78125 12.304688 21.246094 13.21875 21.246094 Z M 13.214844 21.246094 " fill-opacity="1" fill-rule="nonzero"/><path fill="#25f4ee" d="M 22.765625 10.039062 L 22.765625 9.277344 C 21.859375 9.277344 21.015625 9.007812 20.304688 8.546875 C 20.9375 9.269531 21.792969 9.832031 22.765625 10.039062 Z M 22.765625 10.039062 " fill-opacity="1" fill-rule="nonzero"/><path fill="#fe2c55" d="M 20.304688 8.546875 C 19.617188 7.753906 19.195312 6.71875 19.195312 5.585938 L 18.3125 5.585938 C 18.539062 6.820312 19.289062 7.882812 20.304688 8.546875 Z M 20.304688 8.546875 " fill-opacity="1" fill-rule="nonzero"/><path fill="#fe2c55" d="M 12.269531 14.917969 C 10.765625 14.917969 9.519531 16.167969 9.519531 17.675781 C 9.519531 18.722656 10.132812 19.632812 11.003906 20.089844 C 10.679688 19.644531 10.484375 19.09375 10.484375 18.5 C 10.484375 16.992188 11.710938 15.769531 13.214844 15.769531 C 13.496094 15.769531 13.765625 15.816406 14.023438 15.894531 L 14.023438 12.578125 C 13.757812 12.542969 13.488281 12.519531 13.214844 12.519531 C 13.167969 12.519531 13.121094 12.523438 13.074219 12.523438 L 13.0625 12.523438 C 13.0625 12.523438 13.054688 15.035156 13.054688 15.035156 C 12.796875 14.957031 12.550781 14.921875 12.269531 14.921875 Z M 12.269531 14.917969 " fill-opacity="1" fill-rule="nonzero"/><path fill="#fe2c55" d="M 22.765625 10.003906 L 22.75 10 L 22.75 12.507812 C 21.066406 12.507812 19.5 11.953125 18.226562 11.039062 L 18.226562 17.675781 C 18.226562 20.96875 15.566406 23.636719 12.269531 23.636719 C 10.996094 23.636719 9.816406 23.25 8.84375 22.566406 C 9.933594 23.738281 11.492188 24.476562 13.214844 24.476562 C 16.511719 24.476562 19.195312 21.792969 19.195312 18.496094 L 19.195312 11.898438 C 20.46875 12.8125 22.027344 13.351562 23.710938 13.351562 L 23.710938 10.101562 C 23.386719 10.101562 23.070312 10.066406 22.765625 10.003906 Z M 22.765625 10.003906 " fill-opacity="1" fill-rule="nonzero"/><path fill="#ffffff" d="M 18.246094 17.675781 L 18.246094 11.074219 C 19.519531 11.988281 21.082031 12.527344 22.765625 12.527344 L 22.765625 10.003906 C 21.792969 9.792969 20.9375 9.269531 20.304688 8.546875 C 19.289062 7.882812 18.554688 6.820312 18.324219 5.585938 L 15.945312 5.585938 L 15.941406 18.601562 C 15.886719 20.058594 14.683594 21.226562 13.214844 21.226562 C 12.304688 21.226562 11.496094 20.777344 11 20.089844 C 10.132812 19.632812 9.539062 18.722656 9.539062 17.671875 C 9.539062 16.167969 10.761719 14.941406 12.269531 14.941406 C 12.550781 14.941406 12.820312 14.988281 13.074219 15.070312 L 13.074219 12.523438 C 9.84375 12.597656 7.238281 15.246094 7.238281 18.496094 C 7.238281 20.070312 7.847656 21.5 8.839844 22.570312 C 9.8125 23.25 10.992188 23.652344 12.269531 23.652344 C 15.566406 23.652344 18.246094 20.96875 18.246094 17.675781 Z M 18.246094 17.675781 " fill-opacity="1" fill-rule="nonzero"/></svg>