<svg xmlns="http://www.w3.org/2000/svg" xmlns:xlink="http://www.w3.org/1999/xlink" width="1920" zoomAndPan="magnify" viewBox="0 0 1440 809.999993" height="1080" preserveAspectRatio="xMidYMid meet" version="1.0"><defs><clipPath id="cef67b5700"><path d="M 862.273438 2 L 1241.773438 2 L 1241.773438 809 L 862.273438 809 Z M 862.273438 2 " clip-rule="nonzero"/></clipPath><clipPath id="a231a91ee3"><path d="M 243 781 L 268 781 L 268 806.558594 L 243 806.558594 Z M 243 781 " clip-rule="nonzero"/></clipPath><clipPath id="559ec462d4"><path d="M 364 495 L 379.773438 495 L 379.773438 546 L 364 546 Z M 364 495 " clip-rule="nonzero"/></clipPath><clipPath id="6de4230173"><path d="M 0.460938 340 L 31 340 L 31 384 L 0.460938 384 Z M 0.460938 340 " clip-rule="nonzero"/></clipPath><clipPath id="a80f5777dd"><path d="M 275 0.398438 L 287 0.398438 L 287 31 L 275 31 Z M 275 0.398438 " clip-rule="nonzero"/></clipPath><clipPath id="24be6897b5"><rect x="0" width="380" y="0" height="807"/></clipPath></defs><path fill="#ffe9b9" d="M 631.757812 400.757812 C 655.898438 475.367188 608.398438 557.550781 525.675781 584.324219 C 442.929688 611.074219 356.304688 572.273438 332.164062 497.660156 C 308.023438 423.03125 374.542969 399.613281 457.269531 372.839844 C 539.992188 346.085938 607.636719 326.144531 631.757812 400.757812 " fill-opacity="1" fill-rule="evenodd"/><path fill="#ffe9b9" d="M 285.730469 406.039062 C 311.839844 439.4375 311.238281 483.523438 284.363281 504.53125 C 257.511719 525.539062 214.550781 515.476562 188.445312 482.078125 C 162.335938 448.675781 162.957031 404.59375 189.808594 383.585938 C 216.679688 362.578125 259.621094 372.636719 285.730469 406.039062 " fill-opacity="1" fill-rule="evenodd"/><path fill="#ffe9b9" d="M 700.785156 288.246094 C 693.515625 330.019531 660.398438 359.140625 626.796875 353.296875 C 593.214844 347.472656 571.847656 308.871094 579.117188 267.097656 C 586.386719 225.34375 619.488281 196.222656 653.085938 202.046875 C 686.6875 207.890625 708.035156 246.472656 700.785156 288.246094 " fill-opacity="1" fill-rule="evenodd"/><path fill="#ffe9b9" d="M 544.632812 243.359375 C 549.734375 285.433594 526.4375 322.890625 492.59375 326.988281 C 458.734375 331.085938 427.140625 300.296875 422.039062 258.21875 C 416.960938 216.144531 440.257812 178.6875 474.117188 174.589844 C 507.941406 170.472656 539.53125 201.261719 544.632812 243.359375 " fill-opacity="1" fill-rule="evenodd"/><path fill="#ffe9b9" d="M 377.375 270.613281 C 396.574219 308.390625 387.476562 351.570312 357.070312 366.996094 C 326.660156 382.441406 286.472656 364.304688 267.273438 326.503906 C 248.09375 288.6875 257.171875 245.546875 287.578125 230.101562 C 317.984375 214.679688 358.195312 232.792969 377.375 270.613281 " fill-opacity="1" fill-rule="evenodd"/><g clip-path="url(#cef67b5700)"><g transform="matrix(1, 0, 0, 1, 862, 2)"><g clip-path="url(#24be6897b5)"><g clip-path="url(#a231a91ee3)"><path fill="#ffe9b9" d="M 258.589844 783.726562 C 258.800781 783.472656 259.035156 783.242188 259.292969 783.035156 C 259.546875 782.828125 259.824219 782.648438 260.117188 782.5 C 260.410156 782.347656 260.714844 782.226562 261.03125 782.136719 C 261.347656 782.046875 261.671875 781.988281 262 781.960938 C 262.328125 781.933594 262.65625 781.941406 262.984375 781.980469 C 263.3125 782.023438 263.632812 782.09375 263.945312 782.199219 C 264.257812 782.300781 264.554688 782.433594 264.84375 782.597656 C 265.128906 782.761719 265.394531 782.953125 265.644531 783.167969 C 265.890625 783.386719 266.117188 783.625 266.316406 783.886719 C 266.515625 784.148438 266.6875 784.429688 266.832031 784.726562 C 266.976562 785.023438 267.089844 785.328125 267.171875 785.648438 C 267.257812 785.96875 267.308594 786.292969 267.324219 786.621094 C 267.34375 786.949219 267.328125 787.277344 267.28125 787.605469 C 267.234375 787.929688 267.152344 788.25 267.042969 788.558594 C 266.929688 788.871094 266.789062 789.167969 266.617188 789.449219 C 266.449219 789.730469 266.25 789.992188 266.027344 790.234375 C 261.84375 794.417969 257.195312 799.535156 252.078125 804.648438 C 251.574219 805.117188 251 805.46875 250.355469 805.710938 C 249.710938 805.953125 249.046875 806.066406 248.359375 806.046875 C 247.023438 806.140625 245.78125 805.839844 244.640625 805.136719 C 244.417969 804.902344 244.21875 804.652344 244.046875 804.378906 C 243.871094 804.109375 243.726562 803.824219 243.605469 803.527344 C 243.484375 803.226562 243.394531 802.917969 243.335938 802.605469 C 243.273438 802.289062 243.242188 801.96875 243.242188 801.648438 C 243.242188 801.324219 243.273438 801.007812 243.335938 800.691406 C 243.394531 800.375 243.484375 800.066406 243.605469 799.765625 C 243.726562 799.46875 243.871094 799.183594 244.046875 798.914062 C 244.21875 798.640625 244.417969 798.390625 244.640625 798.15625 C 249.300781 793.027344 254.40625 788.375 258.589844 783.726562 Z M 258.589844 783.726562 " fill-opacity="1" fill-rule="nonzero"/></g><path fill="#ffe9b9" d="M 368.335938 579.113281 C 368.335938 576.785156 371.589844 574.929688 373.917969 574.929688 C 374.238281 574.972656 374.554688 575.042969 374.859375 575.148438 C 375.167969 575.253906 375.460938 575.390625 375.742188 575.554688 C 376.023438 575.71875 376.285156 575.90625 376.527344 576.125 C 376.769531 576.339844 376.988281 576.578125 377.183594 576.835938 C 377.378906 577.097656 377.546875 577.375 377.6875 577.667969 C 377.824219 577.960938 377.933594 578.265625 378.011719 578.582031 C 378.09375 578.898438 378.140625 579.21875 378.152344 579.542969 C 378.167969 579.867188 378.148438 580.191406 378.101562 580.511719 C 376.585938 593.910156 373.953125 607.085938 370.195312 620.035156 C 370.097656 620.574219 369.90625 621.078125 369.625 621.546875 C 369.34375 622.015625 368.988281 622.421875 368.5625 622.761719 C 368.136719 623.105469 367.664062 623.359375 367.144531 623.53125 C 366.625 623.703125 366.089844 623.777344 365.542969 623.757812 L 363.6875 623.757812 C 363.375 623.636719 363.078125 623.488281 362.792969 623.3125 C 362.511719 623.136719 362.246094 622.9375 362 622.710938 C 361.753906 622.488281 361.53125 622.242188 361.328125 621.976562 C 361.128906 621.710938 360.953125 621.425781 360.800781 621.128906 C 360.652344 620.832031 360.53125 620.519531 360.441406 620.199219 C 360.347656 619.878906 360.289062 619.554688 360.253906 619.222656 C 360.222656 618.890625 360.222656 618.558594 360.253906 618.226562 C 360.28125 617.894531 360.339844 617.566406 360.429688 617.246094 C 364.136719 604.757812 366.773438 592.046875 368.335938 579.113281 Z M 368.335938 579.113281 " fill-opacity="1" fill-rule="nonzero"/><g clip-path="url(#559ec462d4)"><path fill="#ffe9b9" d="M 369.730469 540.035156 C 369.277344 527.117188 367.414062 514.40625 364.152344 501.902344 C 364.070312 501.578125 364.019531 501.253906 364.003906 500.925781 C 363.988281 500.59375 364.007812 500.265625 364.058594 499.9375 C 364.105469 499.609375 364.191406 499.292969 364.304688 498.980469 C 364.417969 498.671875 364.5625 498.375 364.734375 498.09375 C 364.90625 497.8125 365.109375 497.550781 365.332031 497.308594 C 365.558594 497.066406 365.804688 496.847656 366.074219 496.65625 C 366.34375 496.464844 366.632812 496.300781 366.933594 496.164062 C 367.234375 496.03125 367.546875 495.925781 367.871094 495.855469 C 368.191406 495.773438 368.515625 495.726562 368.847656 495.710938 C 369.175781 495.695312 369.507812 495.710938 369.832031 495.761719 C 370.160156 495.8125 370.480469 495.894531 370.789062 496.007812 C 371.101562 496.121094 371.394531 496.265625 371.679688 496.4375 C 371.960938 496.613281 372.222656 496.8125 372.464844 497.039062 C 372.707031 497.261719 372.921875 497.511719 373.113281 497.78125 C 373.308594 498.050781 373.46875 498.335938 373.605469 498.636719 C 373.738281 498.9375 373.84375 499.25 373.917969 499.574219 C 377.371094 512.691406 379.382812 526.027344 379.960938 539.578125 C 379.984375 539.929688 379.96875 540.28125 379.921875 540.632812 C 379.871094 540.980469 379.789062 541.324219 379.667969 541.65625 C 379.550781 541.988281 379.402344 542.304688 379.21875 542.609375 C 379.039062 542.910156 378.828125 543.191406 378.589844 543.453125 C 378.347656 543.714844 378.085938 543.949219 377.800781 544.15625 C 377.515625 544.363281 377.210938 544.539062 376.890625 544.683594 C 376.566406 544.832031 376.234375 544.945312 375.890625 545.023438 C 375.546875 545.101562 375.199219 545.144531 374.84375 545.15625 C 374.507812 545.152344 374.179688 545.117188 373.847656 545.050781 C 373.519531 544.980469 373.203125 544.882812 372.894531 544.753906 C 372.585938 544.625 372.289062 544.464844 372.011719 544.277344 C 371.734375 544.089844 371.476562 543.878906 371.238281 543.640625 C 371.003906 543.402344 370.792969 543.144531 370.605469 542.867188 C 370.417969 542.589844 370.261719 542.296875 370.128906 541.984375 C 370 541.675781 369.902344 541.359375 369.835938 541.027344 C 369.769531 540.699219 369.734375 540.367188 369.730469 540.035156 Z M 369.730469 540.035156 " fill-opacity="1" fill-rule="nonzero"/></g><path fill="#ffe9b9" d="M 351.59375 465.648438 C 346.328125 453.714844 339.972656 442.390625 332.527344 431.679688 C 332.363281 431.40625 332.222656 431.117188 332.113281 430.816406 C 332 430.515625 331.921875 430.207031 331.867188 429.890625 C 331.816406 429.570312 331.796875 429.253906 331.804688 428.929688 C 331.8125 428.609375 331.855469 428.292969 331.925781 427.980469 C 331.996094 427.667969 332.09375 427.363281 332.222656 427.066406 C 332.351562 426.773438 332.503906 426.492188 332.6875 426.230469 C 332.871094 425.964844 333.074219 425.71875 333.304688 425.492188 C 333.535156 425.269531 333.78125 425.066406 334.050781 424.886719 C 334.316406 424.710938 334.597656 424.558594 334.894531 424.4375 C 335.191406 424.3125 335.496094 424.21875 335.8125 424.152344 C 336.125 424.085938 336.445312 424.054688 336.765625 424.046875 C 337.085938 424.042969 337.40625 424.070312 337.722656 424.128906 C 338.039062 424.183594 338.347656 424.269531 338.644531 424.386719 C 338.945312 424.5 339.230469 424.644531 339.503906 424.816406 C 339.777344 424.984375 340.03125 425.179688 340.265625 425.398438 C 340.5 425.617188 340.710938 425.859375 340.902344 426.117188 C 348.644531 437.289062 355.308594 449.070312 360.894531 461.460938 C 361.019531 461.765625 361.117188 462.078125 361.179688 462.402344 C 361.242188 462.726562 361.273438 463.054688 361.269531 463.382812 C 361.265625 463.714844 361.230469 464.039062 361.164062 464.363281 C 361.097656 464.683594 361 465 360.867188 465.300781 C 360.738281 465.605469 360.578125 465.890625 360.390625 466.164062 C 360.207031 466.433594 359.992188 466.683594 359.753906 466.914062 C 359.519531 467.144531 359.261719 467.347656 358.984375 467.523438 C 358.707031 467.703125 358.414062 467.851562 358.105469 467.96875 C 357.542969 468.347656 356.921875 468.5 356.246094 468.425781 C 355.769531 468.433594 355.296875 468.378906 354.835938 468.253906 C 354.371094 468.132812 353.933594 467.949219 353.523438 467.703125 C 353.113281 467.457031 352.742188 467.160156 352.414062 466.8125 C 352.085938 466.460938 351.8125 466.074219 351.59375 465.648438 Z M 351.59375 465.648438 " fill-opacity="1" fill-rule="nonzero"/><path fill="#ffe9b9" d="M 285.5625 110.367188 C 282.308594 109.914062 279.980469 108.042969 280.445312 106.183594 L 280.445312 97.347656 C 280.445312 87.117188 280.445312 76.40625 279.992188 66.1875 C 279.957031 65.851562 279.957031 65.511719 279.992188 65.175781 C 280.023438 64.839844 280.089844 64.507812 280.191406 64.183594 C 280.289062 63.859375 280.417969 63.546875 280.578125 63.246094 C 280.742188 62.949219 280.929688 62.667969 281.144531 62.40625 C 281.363281 62.144531 281.601562 61.90625 281.867188 61.695312 C 282.128906 61.480469 282.410156 61.292969 282.710938 61.136719 C 283.011719 60.976562 283.324219 60.851562 283.652344 60.753906 C 283.976562 60.660156 284.308594 60.597656 284.644531 60.566406 C 284.984375 60.535156 285.320312 60.539062 285.660156 60.578125 C 285.996094 60.613281 286.328125 60.683594 286.652344 60.785156 C 286.972656 60.886719 287.285156 61.019531 287.582031 61.183594 C 287.878906 61.347656 288.15625 61.539062 288.417969 61.757812 C 288.675781 61.980469 288.910156 62.222656 289.121094 62.488281 C 289.332031 62.753906 289.515625 63.035156 289.671875 63.339844 C 289.824219 63.640625 289.949219 63.953125 290.042969 64.28125 C 290.132812 64.609375 290.195312 64.941406 290.222656 65.277344 C 290.222656 75.507812 290.675781 86.21875 290.675781 96.4375 L 290.675781 105.257812 C 290.671875 105.59375 290.636719 105.925781 290.570312 106.253906 C 290.5 106.582031 290.402344 106.898438 290.273438 107.207031 C 290.144531 107.515625 289.984375 107.808594 289.796875 108.085938 C 289.609375 108.363281 289.398438 108.621094 289.164062 108.855469 C 288.925781 109.09375 288.667969 109.304688 288.390625 109.492188 C 288.113281 109.679688 287.820312 109.835938 287.511719 109.964844 C 287.203125 110.09375 286.886719 110.195312 286.558594 110.261719 C 286.230469 110.328125 285.898438 110.363281 285.5625 110.367188 Z M 285.5625 110.367188 " fill-opacity="1" fill-rule="nonzero"/><path fill="#ffe9b9" d="M 347.410156 654.449219 C 347.519531 654.136719 347.660156 653.835938 347.835938 653.550781 C 348.007812 653.265625 348.207031 653 348.433594 652.757812 C 348.660156 652.515625 348.910156 652.296875 349.183594 652.105469 C 349.457031 651.914062 349.746094 651.753906 350.050781 651.621094 C 350.359375 651.492188 350.675781 651.390625 351 651.328125 C 351.328125 651.261719 351.65625 651.230469 351.992188 651.234375 C 352.324219 651.238281 352.652344 651.273438 352.976562 651.347656 C 353.304688 651.417969 353.617188 651.523438 353.921875 651.660156 C 354.234375 651.769531 354.535156 651.910156 354.820312 652.082031 C 355.105469 652.253906 355.371094 652.453125 355.613281 652.683594 C 355.855469 652.910156 356.074219 653.160156 356.265625 653.433594 C 356.457031 653.703125 356.617188 653.992188 356.75 654.300781 C 356.878906 654.605469 356.976562 654.921875 357.042969 655.25 C 357.109375 655.574219 357.140625 655.90625 357.136719 656.238281 C 357.132812 656.570312 357.097656 656.902344 357.023438 657.226562 C 356.953125 657.550781 356.847656 657.867188 356.710938 658.167969 C 351.128906 669.792969 345.085938 681.882812 338.574219 693.976562 C 338.40625 694.390625 338.179688 694.773438 337.898438 695.121094 C 337.613281 695.46875 337.285156 695.765625 336.910156 696.015625 C 336.539062 696.261719 336.136719 696.453125 335.707031 696.578125 C 335.277344 696.707031 334.839844 696.769531 334.390625 696.765625 C 333.480469 696.765625 332.992188 696.3125 331.601562 695.855469 C 331.316406 695.714844 331.046875 695.542969 330.800781 695.34375 C 330.550781 695.148438 330.324219 694.925781 330.121094 694.679688 C 329.917969 694.433594 329.742188 694.171875 329.59375 693.890625 C 329.445312 693.609375 329.328125 693.316406 329.238281 693.007812 C 329.152344 692.703125 329.097656 692.390625 329.074219 692.074219 C 329.050781 691.757812 329.0625 691.441406 329.105469 691.125 C 329.148438 690.808594 329.222656 690.503906 329.328125 690.203125 C 329.433594 689.902344 329.570312 689.617188 329.738281 689.34375 C 336.464844 678.136719 342.355469 666.503906 347.410156 654.449219 Z M 347.410156 654.449219 " fill-opacity="1" fill-rule="nonzero"/><path fill="#ffe9b9" d="M 98.15625 318.234375 C 85.390625 320.320312 72.992188 323.730469 60.957031 328.464844 C 60.390625 328.839844 59.769531 328.992188 59.09375 328.921875 C 58.597656 328.878906 58.113281 328.777344 57.644531 328.609375 C 57.171875 328.4375 56.734375 328.210938 56.324219 327.925781 C 55.914062 327.640625 55.550781 327.304688 55.230469 326.921875 C 54.914062 326.539062 54.648438 326.117188 54.441406 325.664062 C 54.316406 325.359375 54.222656 325.046875 54.160156 324.722656 C 54.097656 324.398438 54.066406 324.070312 54.066406 323.742188 C 54.070312 323.410156 54.105469 323.085938 54.171875 322.761719 C 54.238281 322.4375 54.339844 322.125 54.46875 321.824219 C 54.597656 321.519531 54.757812 321.234375 54.945312 320.960938 C 55.132812 320.691406 55.34375 320.441406 55.582031 320.210938 C 55.820312 319.980469 56.078125 319.777344 56.355469 319.601562 C 56.632812 319.421875 56.925781 319.273438 57.230469 319.15625 C 69.933594 313.828125 83.109375 310.261719 96.761719 308.460938 C 97.082031 308.414062 97.40625 308.402344 97.726562 308.421875 C 98.050781 308.4375 98.367188 308.488281 98.679688 308.570312 C 98.996094 308.648438 99.296875 308.761719 99.589844 308.902344 C 99.878906 309.039062 100.15625 309.207031 100.414062 309.402344 C 100.671875 309.597656 100.910156 309.816406 101.125 310.054688 C 101.339844 310.296875 101.53125 310.554688 101.695312 310.835938 C 101.859375 311.113281 101.996094 311.40625 102.101562 311.710938 C 102.210938 312.015625 102.285156 312.328125 102.332031 312.648438 C 102.378906 312.96875 102.390625 313.289062 102.375 313.613281 C 102.355469 313.9375 102.308594 314.253906 102.226562 314.566406 C 102.148438 314.878906 102.035156 315.183594 101.898438 315.476562 C 101.757812 315.765625 101.589844 316.042969 101.398438 316.300781 C 101.203125 316.558594 100.984375 316.796875 100.746094 317.011719 C 100.503906 317.230469 100.246094 317.421875 99.96875 317.585938 C 99.691406 317.75 99.398438 317.886719 99.09375 317.996094 C 98.789062 318.101562 98.476562 318.179688 98.15625 318.226562 Z M 98.15625 318.234375 " fill-opacity="1" fill-rule="nonzero"/><path fill="#ffe9b9" d="M 176.277344 323.8125 C 175.824219 323.8125 175.824219 323.355469 174.886719 323.8125 C 162.316406 320.890625 149.605469 318.878906 136.753906 317.769531 C 136.425781 317.730469 136.101562 317.660156 135.789062 317.558594 C 135.472656 317.457031 135.171875 317.324219 134.882812 317.164062 C 134.59375 317.007812 134.320312 316.820312 134.066406 316.605469 C 133.8125 316.394531 133.582031 316.160156 133.375 315.902344 C 133.167969 315.644531 132.984375 315.371094 132.832031 315.078125 C 132.675781 314.789062 132.550781 314.484375 132.453125 314.167969 C 132.355469 313.851562 132.292969 313.527344 132.257812 313.199219 C 132.222656 312.871094 132.21875 312.542969 132.25 312.210938 C 132.277344 311.882812 132.339844 311.558594 132.429688 311.242188 C 132.523438 310.925781 132.644531 310.617188 132.792969 310.324219 C 132.945312 310.03125 133.125 309.753906 133.328125 309.492188 C 133.53125 309.230469 133.757812 308.996094 134.007812 308.777344 C 134.257812 308.5625 134.527344 308.371094 134.816406 308.207031 C 135.101562 308.042969 135.402344 307.90625 135.714844 307.800781 C 136.027344 307.695312 136.347656 307.621094 136.675781 307.574219 C 137.003906 307.53125 137.332031 307.515625 137.664062 307.535156 C 151.171875 308.609375 164.503906 310.78125 177.65625 314.046875 C 177.980469 314.117188 178.292969 314.222656 178.59375 314.359375 C 178.898438 314.492188 179.183594 314.65625 179.449219 314.847656 C 179.71875 315.042969 179.96875 315.257812 180.191406 315.5 C 180.417969 315.742188 180.617188 316.003906 180.792969 316.285156 C 180.964844 316.566406 181.109375 316.863281 181.222656 317.171875 C 181.335938 317.484375 181.417969 317.804688 181.46875 318.128906 C 181.519531 318.457031 181.535156 318.785156 181.523438 319.117188 C 181.507812 319.445312 181.457031 319.773438 181.378906 320.09375 C 181.160156 320.601562 180.878906 321.074219 180.53125 321.511719 C 180.183594 321.945312 179.789062 322.328125 179.339844 322.652344 C 178.890625 322.980469 178.40625 323.242188 177.886719 323.441406 C 177.367188 323.636719 176.832031 323.761719 176.277344 323.8125 Z M 176.277344 323.8125 " fill-opacity="1" fill-rule="nonzero"/><path fill="#ffe9b9" d="M 274.402344 183.84375 C 276.265625 171.285156 277.660156 158.265625 278.585938 144.78125 C 278.625 144.453125 278.695312 144.132812 278.796875 143.816406 C 278.898438 143.5 279.027344 143.199219 279.1875 142.910156 C 279.347656 142.621094 279.535156 142.347656 279.746094 142.097656 C 279.960938 141.84375 280.195312 141.613281 280.453125 141.402344 C 280.707031 141.195312 280.984375 141.015625 281.273438 140.859375 C 281.566406 140.703125 281.871094 140.578125 282.1875 140.480469 C 282.503906 140.382812 282.828125 140.320312 283.15625 140.285156 C 283.484375 140.25 283.8125 140.25 284.144531 140.277344 C 284.472656 140.308594 284.796875 140.367188 285.113281 140.460938 C 285.429688 140.550781 285.738281 140.671875 286.03125 140.824219 C 286.324219 140.972656 286.601562 141.152344 286.863281 141.355469 C 287.121094 141.558594 287.359375 141.789062 287.578125 142.039062 C 287.792969 142.289062 287.984375 142.554688 288.148438 142.84375 C 288.3125 143.128906 288.449219 143.429688 288.554688 143.742188 C 288.660156 144.054688 288.734375 144.375 288.78125 144.703125 C 288.824219 145.03125 288.835938 145.359375 288.820312 145.691406 C 287.886719 159.175781 286.492188 172.660156 284.628906 185.21875 C 284.492188 185.796875 284.265625 186.339844 283.945312 186.847656 C 283.628906 187.351562 283.242188 187.792969 282.777344 188.171875 C 282.316406 188.550781 281.808594 188.84375 281.25 189.054688 C 280.691406 189.265625 280.113281 189.382812 279.519531 189.40625 C 278.832031 189.316406 278.183594 189.113281 277.570312 188.792969 C 276.957031 188.476562 276.417969 188.0625 275.949219 187.554688 C 275.480469 187.046875 275.113281 186.472656 274.847656 185.835938 C 274.582031 185.195312 274.433594 184.53125 274.402344 183.84375 Z M 274.402344 183.84375 " fill-opacity="1" fill-rule="nonzero"/><g clip-path="url(#6de4230173)"><path fill="#ffe9b9" d="M 0.503906 377.753906 C 1.894531 365.664062 9.804688 353.578125 22.808594 341.949219 C 23.054688 341.746094 23.316406 341.566406 23.597656 341.410156 C 23.878906 341.257812 24.171875 341.132812 24.476562 341.035156 C 24.78125 340.9375 25.089844 340.871094 25.410156 340.835938 C 25.726562 340.796875 26.042969 340.792969 26.363281 340.816406 C 26.683594 340.84375 26.996094 340.898438 27.304688 340.984375 C 27.613281 341.070312 27.910156 341.183594 28.195312 341.328125 C 28.480469 341.472656 28.75 341.640625 29 341.835938 C 29.253906 342.03125 29.484375 342.25 29.695312 342.492188 C 29.90625 342.730469 30.09375 342.988281 30.253906 343.265625 C 30.414062 343.542969 30.546875 343.832031 30.648438 344.132812 C 30.753906 344.4375 30.828125 344.746094 30.871094 345.0625 C 30.917969 345.378906 30.929688 345.695312 30.914062 346.015625 C 30.894531 346.335938 30.847656 346.648438 30.769531 346.960938 C 30.691406 347.269531 30.582031 347.570312 30.445312 347.859375 C 30.308594 348.148438 30.148438 348.421875 29.957031 348.679688 C 29.769531 348.933594 29.554688 349.171875 29.320312 349.386719 C 18.15625 359.152344 11.648438 369.875 10.253906 379.152344 C 10.113281 379.734375 9.886719 380.277344 9.570312 380.78125 C 9.25 381.289062 8.863281 381.730469 8.398438 382.105469 C 7.9375 382.484375 7.425781 382.777344 6.867188 382.988281 C 6.3125 383.199219 5.734375 383.316406 5.136719 383.335938 L 4.679688 383.335938 C 4.359375 383.296875 4.042969 383.222656 3.738281 383.117188 C 3.429688 383.011719 3.136719 382.875 2.855469 382.710938 C 2.574219 382.546875 2.3125 382.359375 2.070312 382.140625 C 1.828125 381.925781 1.609375 381.6875 1.414062 381.425781 C 1.222656 381.167969 1.054688 380.890625 0.914062 380.597656 C 0.773438 380.304688 0.667969 380 0.589844 379.683594 C 0.507812 379.367188 0.464844 379.046875 0.449219 378.722656 C 0.433594 378.398438 0.453125 378.078125 0.503906 377.753906 Z M 0.503906 377.753906 " fill-opacity="1" fill-rule="nonzero"/></g><path fill="#ffe9b9" d="M 308.8125 722.34375 C 308.996094 722.066406 309.207031 721.8125 309.4375 721.578125 C 309.671875 721.347656 309.925781 721.136719 310.199219 720.953125 C 310.476562 720.769531 310.765625 720.613281 311.070312 720.488281 C 311.375 720.363281 311.6875 720.265625 312.011719 720.203125 C 312.335938 720.136719 312.664062 720.105469 312.992188 720.105469 C 313.324219 720.105469 313.652344 720.136719 313.976562 720.199219 C 314.296875 720.265625 314.613281 720.359375 314.917969 720.484375 C 315.222656 720.613281 315.515625 720.765625 315.789062 720.949219 C 316.0625 721.132812 316.316406 721.339844 316.550781 721.574219 C 316.785156 721.808594 316.992188 722.0625 317.175781 722.335938 C 317.359375 722.609375 317.515625 722.898438 317.640625 723.207031 C 317.769531 723.511719 317.863281 723.824219 317.929688 724.148438 C 317.996094 724.472656 318.027344 724.800781 318.027344 725.128906 C 318.027344 725.460938 317.996094 725.785156 317.929688 726.109375 C 317.867188 726.433594 317.773438 726.75 317.644531 727.054688 C 317.519531 727.359375 317.363281 727.648438 317.179688 727.925781 C 309.679688 739.039062 301.617188 749.734375 293.003906 760.011719 C 292.492188 760.636719 291.871094 761.113281 291.132812 761.441406 C 290.394531 761.769531 289.625 761.910156 288.820312 761.867188 C 287.59375 761.730469 286.507812 761.265625 285.5625 760.476562 C 285.324219 760.257812 285.109375 760.019531 284.917969 759.757812 C 284.726562 759.5 284.5625 759.226562 284.421875 758.933594 C 284.28125 758.644531 284.171875 758.34375 284.089844 758.03125 C 284.007812 757.71875 283.957031 757.402344 283.9375 757.078125 C 283.914062 756.757812 283.925781 756.4375 283.964844 756.117188 C 284.003906 755.796875 284.074219 755.484375 284.175781 755.175781 C 284.277344 754.871094 284.40625 754.574219 284.5625 754.292969 C 284.71875 754.011719 284.902344 753.746094 285.109375 753.5 C 293.460938 743.265625 301.371094 732.574219 308.8125 722.34375 Z M 308.8125 722.34375 " fill-opacity="1" fill-rule="nonzero"/><path fill="#ffe9b9" d="M 199.070312 361.015625 C 199.28125 360.761719 199.515625 360.53125 199.769531 360.328125 C 200.027344 360.121094 200.304688 359.941406 200.59375 359.789062 C 200.886719 359.636719 201.191406 359.515625 201.511719 359.425781 C 201.828125 359.335938 202.148438 359.277344 202.480469 359.253906 C 202.808594 359.226562 203.136719 359.234375 203.460938 359.273438 C 203.789062 359.3125 204.109375 359.386719 204.421875 359.488281 C 204.734375 359.59375 205.035156 359.726562 205.320312 359.890625 C 205.605469 360.054688 205.875 360.242188 206.121094 360.460938 C 206.371094 360.679688 206.59375 360.917969 206.792969 361.179688 C 206.996094 361.441406 207.167969 361.71875 207.3125 362.015625 C 207.457031 362.3125 207.570312 362.621094 207.652344 362.941406 C 207.734375 363.257812 207.785156 363.582031 207.804688 363.914062 C 207.820312 364.242188 207.804688 364.570312 207.757812 364.894531 C 207.710938 365.222656 207.632812 365.539062 207.519531 365.851562 C 207.410156 366.160156 207.269531 366.457031 207.097656 366.738281 C 206.925781 367.019531 206.730469 367.285156 206.507812 367.527344 C 197.160156 377.519531 186.929688 386.511719 175.8125 394.496094 C 174.773438 394.957031 173.6875 395.261719 172.558594 395.40625 C 170.703125 395.40625 169.304688 394.496094 169.304688 393.542969 C 169.085938 393.292969 168.898438 393.023438 168.738281 392.730469 C 168.578125 392.441406 168.449219 392.136719 168.355469 391.816406 C 168.261719 391.5 168.199219 391.175781 168.171875 390.84375 C 168.144531 390.511719 168.152344 390.183594 168.195312 389.851562 C 168.238281 389.523438 168.316406 389.203125 168.425781 388.890625 C 168.539062 388.578125 168.679688 388.277344 168.855469 387.996094 C 169.027344 387.710938 169.230469 387.449219 169.457031 387.210938 C 169.6875 386.96875 169.941406 386.757812 170.214844 386.570312 C 180.398438 378.6875 190.015625 370.171875 199.070312 361.015625 Z M 199.070312 361.015625 " fill-opacity="1" fill-rule="nonzero"/><path fill="#ffe9b9" d="M 26.078125 407.050781 C 31.425781 410.363281 37.085938 413 43.058594 414.964844 C 49.03125 416.929688 55.152344 418.167969 61.421875 418.679688 C 61.742188 418.722656 62.058594 418.796875 62.363281 418.902344 C 62.671875 419.003906 62.964844 419.140625 63.246094 419.304688 C 63.527344 419.46875 63.789062 419.660156 64.03125 419.875 C 64.273438 420.089844 64.492188 420.328125 64.6875 420.589844 C 64.882812 420.847656 65.050781 421.125 65.1875 421.417969 C 65.328125 421.710938 65.4375 422.015625 65.515625 422.332031 C 65.59375 422.648438 65.640625 422.96875 65.65625 423.292969 C 65.671875 423.617188 65.652344 423.941406 65.605469 424.261719 C 65.5 424.859375 65.292969 425.417969 64.988281 425.941406 C 64.679688 426.464844 64.292969 426.921875 63.824219 427.304688 C 63.355469 427.6875 62.832031 427.976562 62.257812 428.175781 C 61.683594 428.371094 61.09375 428.460938 60.488281 428.445312 C 60.363281 428.445312 60.253906 428.398438 60.164062 428.3125 C 60.078125 428.222656 60.03125 428.113281 60.03125 427.988281 C 53.046875 427.460938 46.214844 426.136719 39.539062 424.015625 C 32.859375 421.894531 26.515625 419.035156 20.507812 415.433594 C 20.230469 415.25 19.976562 415.042969 19.742188 414.808594 C 19.507812 414.574219 19.300781 414.320312 19.117188 414.046875 C 18.933594 413.773438 18.777344 413.480469 18.652344 413.175781 C 18.523438 412.871094 18.429688 412.558594 18.363281 412.234375 C 18.300781 411.910156 18.265625 411.582031 18.265625 411.253906 C 18.265625 410.921875 18.296875 410.59375 18.363281 410.269531 C 18.425781 409.945312 18.519531 409.632812 18.648438 409.328125 C 18.773438 409.019531 18.925781 408.730469 19.109375 408.457031 C 19.292969 408.179688 19.503906 407.925781 19.734375 407.691406 C 19.96875 407.460938 20.222656 407.25 20.496094 407.066406 C 20.773438 406.882812 21.0625 406.726562 21.367188 406.601562 C 21.671875 406.472656 21.988281 406.378906 22.308594 406.3125 C 22.632812 406.25 22.960938 406.214844 23.292969 406.214844 C 23.621094 406.214844 23.949219 406.246094 24.273438 406.3125 C 24.597656 406.375 24.914062 406.472656 25.21875 406.597656 C 25.523438 406.722656 25.8125 406.878906 26.085938 407.0625 Z M 26.078125 407.050781 " fill-opacity="1" fill-rule="nonzero"/><path fill="#ffe9b9" d="M 99.554688 416.816406 C 112.320312 414.8125 124.5625 411.089844 136.289062 405.660156 C 136.90625 405.457031 137.542969 405.375 138.191406 405.402344 C 138.84375 405.433594 139.46875 405.578125 140.066406 405.832031 C 140.664062 406.089844 141.199219 406.441406 141.667969 406.894531 C 142.140625 407.34375 142.515625 407.863281 142.796875 408.449219 C 142.925781 408.753906 143.019531 409.070312 143.082031 409.394531 C 143.144531 409.714844 143.175781 410.042969 143.171875 410.371094 C 143.167969 410.703125 143.132812 411.027344 143.066406 411.351562 C 143 411.675781 142.902344 411.988281 142.769531 412.289062 C 142.640625 412.59375 142.484375 412.882812 142.296875 413.152344 C 142.109375 413.425781 141.894531 413.675781 141.660156 413.902344 C 141.421875 414.132812 141.164062 414.335938 140.886719 414.515625 C 140.609375 414.691406 140.316406 414.839844 140.007812 414.960938 C 127.371094 420.117188 114.347656 423.996094 100.945312 426.585938 L 100.035156 426.585938 C 99.453125 426.597656 98.890625 426.5 98.347656 426.296875 C 97.804688 426.09375 97.316406 425.796875 96.882812 425.410156 C 96.453125 425.019531 96.105469 424.566406 95.847656 424.046875 C 95.589844 423.527344 95.433594 422.976562 95.382812 422.398438 C 95.34375 422.078125 95.335938 421.761719 95.359375 421.4375 C 95.382812 421.117188 95.4375 420.804688 95.519531 420.492188 C 95.601562 420.183594 95.714844 419.882812 95.855469 419.59375 C 95.992188 419.304688 96.160156 419.03125 96.351562 418.773438 C 96.542969 418.515625 96.757812 418.28125 96.996094 418.0625 C 97.234375 417.847656 97.492188 417.65625 97.765625 417.488281 C 98.039062 417.320312 98.324219 417.179688 98.625 417.066406 C 98.929688 416.953125 99.238281 416.871094 99.554688 416.816406 Z M 99.554688 416.816406 " fill-opacity="1" fill-rule="nonzero"/><path fill="#ffe9b9" d="M 261.378906 266.617188 L 259.519531 266.617188 C 259.191406 266.515625 258.882812 266.386719 258.582031 266.222656 C 258.285156 266.058594 258.003906 265.867188 257.746094 265.648438 C 257.484375 265.429688 257.25 265.183594 257.039062 264.917969 C 256.832031 264.648438 256.648438 264.363281 256.496094 264.058594 C 256.34375 263.753906 256.226562 263.4375 256.136719 263.109375 C 256.050781 262.78125 255.996094 262.445312 255.976562 262.105469 C 255.957031 261.765625 255.96875 261.429688 256.019531 261.09375 C 256.066406 260.757812 256.148438 260.425781 256.261719 260.105469 C 260.453125 248.480469 263.707031 235.460938 266.960938 222.4375 C 267.039062 222.117188 267.144531 221.808594 267.28125 221.507812 C 267.417969 221.207031 267.585938 220.925781 267.777344 220.65625 C 267.96875 220.390625 268.1875 220.144531 268.429688 219.917969 C 268.671875 219.695312 268.933594 219.496094 269.214844 219.324219 C 269.492188 219.148438 269.789062 219.007812 270.097656 218.890625 C 270.40625 218.777344 270.726562 218.691406 271.050781 218.640625 C 271.375 218.589844 271.703125 218.570312 272.035156 218.582031 C 272.363281 218.59375 272.6875 218.636719 273.007812 218.714844 C 273.328125 218.789062 273.640625 218.898438 273.941406 219.035156 C 274.238281 219.171875 274.523438 219.339844 274.789062 219.53125 C 275.058594 219.726562 275.304688 219.941406 275.527344 220.183594 C 275.75 220.425781 275.949219 220.6875 276.121094 220.96875 C 276.296875 221.25 276.4375 221.546875 276.554688 221.855469 C 276.667969 222.164062 276.75 222.480469 276.800781 222.808594 C 276.855469 223.132812 276.875 223.460938 276.859375 223.789062 C 276.847656 224.121094 276.804688 224.445312 276.726562 224.765625 C 273.929688 237.84375 270.363281 250.710938 266.027344 263.363281 C 265.847656 263.835938 265.601562 264.269531 265.292969 264.671875 C 264.980469 265.070312 264.617188 265.414062 264.203125 265.703125 C 263.789062 265.992188 263.34375 266.21875 262.859375 266.371094 C 262.378906 266.527344 261.886719 266.609375 261.378906 266.617188 Z M 261.378906 266.617188 " fill-opacity="1" fill-rule="nonzero"/><path fill="#ffe9b9" d="M 286.027344 367.0625 C 296.609375 375.484375 306.523438 384.628906 315.769531 394.496094 C 316.128906 395.019531 316.394531 395.585938 316.566406 396.195312 C 316.734375 396.808594 316.796875 397.429688 316.757812 398.0625 C 316.714844 398.699219 316.570312 399.308594 316.324219 399.890625 C 316.078125 400.476562 315.742188 401.003906 315.316406 401.476562 C 314.902344 401.933594 314.410156 402.285156 313.839844 402.527344 C 313.273438 402.773438 312.679688 402.886719 312.058594 402.867188 C 311.285156 402.808594 310.570312 402.574219 309.914062 402.160156 C 309.257812 401.75 308.730469 401.210938 308.339844 400.542969 C 299.273438 391.257812 289.664062 382.578125 279.507812 374.5 C 279.273438 374.285156 279.0625 374.046875 278.871094 373.789062 C 278.683594 373.53125 278.519531 373.257812 278.382812 372.96875 C 278.246094 372.679688 278.136719 372.382812 278.058594 372.070312 C 277.980469 371.761719 277.933594 371.449219 277.917969 371.128906 C 277.898438 370.808594 277.914062 370.492188 277.957031 370.175781 C 278 369.859375 278.074219 369.550781 278.179688 369.246094 C 278.285156 368.945312 278.414062 368.65625 278.574219 368.378906 C 278.738281 368.101562 278.921875 367.84375 279.132812 367.601562 C 279.34375 367.363281 279.574219 367.144531 279.828125 366.949219 C 280.082031 366.753906 280.347656 366.582031 280.636719 366.441406 C 280.921875 366.296875 281.21875 366.183594 281.527344 366.097656 C 281.832031 366.011719 282.148438 365.957031 282.464844 365.929688 C 282.785156 365.90625 283.101562 365.910156 283.417969 365.949219 C 283.738281 365.984375 284.046875 366.050781 284.351562 366.148438 C 284.65625 366.246094 284.949219 366.371094 285.230469 366.523438 C 285.511719 366.679688 285.773438 366.855469 286.019531 367.0625 Z M 286.027344 367.0625 " fill-opacity="1" fill-rule="nonzero"/><path fill="#ffe9b9" d="M 215.808594 326.136719 C 218.597656 327.535156 220.921875 328.464844 223.246094 329.394531 C 230.277344 318.855469 236.476562 307.847656 241.847656 296.378906 C 241.976562 296.070312 242.128906 295.777344 242.316406 295.5 C 242.5 295.222656 242.710938 294.96875 242.949219 294.734375 C 243.183594 294.5 243.445312 294.292969 243.722656 294.113281 C 244.003906 293.929688 244.296875 293.78125 244.609375 293.660156 C 244.917969 293.539062 245.238281 293.449219 245.566406 293.394531 C 245.894531 293.339844 246.226562 293.316406 246.558594 293.328125 C 246.890625 293.339844 247.21875 293.386719 247.542969 293.464844 C 247.867188 293.546875 248.175781 293.65625 248.476562 293.800781 C 248.777344 293.941406 249.0625 294.113281 249.328125 294.316406 C 249.59375 294.515625 249.835938 294.742188 250.054688 294.992188 C 250.277344 295.242188 250.46875 295.511719 250.632812 295.800781 C 250.796875 296.089844 250.929688 296.394531 251.03125 296.710938 C 251.136719 297.027344 251.203125 297.351562 251.242188 297.683594 C 251.277344 298.011719 251.28125 298.34375 251.25 298.675781 C 251.21875 299.007812 251.152344 299.332031 251.054688 299.652344 C 250.957031 299.96875 250.828125 300.273438 250.667969 300.566406 C 244.621094 312.195312 238.578125 323.328125 232.066406 333.582031 C 238.972656 336.53125 245.644531 339.941406 252.078125 343.816406 C 252.363281 343.992188 252.625 344.191406 252.871094 344.414062 C 253.117188 344.640625 253.339844 344.886719 253.539062 345.152344 C 253.738281 345.417969 253.910156 345.703125 254.054688 346 C 254.199219 346.300781 254.3125 346.609375 254.398438 346.933594 C 254.484375 347.253906 254.539062 347.582031 254.5625 347.914062 C 254.585938 348.242188 254.578125 348.574219 254.539062 348.90625 C 254.5 349.234375 254.429688 349.558594 254.332031 349.875 C 254.230469 350.195312 254.101562 350.5 253.941406 350.789062 C 253.492188 351.515625 252.898438 352.085938 252.152344 352.5 C 251.40625 352.914062 250.605469 353.121094 249.753906 353.117188 C 248.785156 353.195312 247.859375 353.042969 246.964844 352.660156 C 235.707031 346.183594 224.082031 340.449219 212.089844 335.457031 C 211.789062 335.328125 211.507812 335.167969 211.238281 334.984375 C 210.96875 334.800781 210.71875 334.59375 210.488281 334.363281 C 210.261719 334.128906 210.054688 333.878906 209.871094 333.609375 C 209.691406 333.339844 209.535156 333.054688 209.40625 332.753906 C 209.277344 332.453125 209.179688 332.144531 209.109375 331.828125 C 209.039062 331.507812 209 331.1875 208.988281 330.859375 C 208.980469 330.535156 209 330.210938 209.054688 329.890625 C 209.105469 329.566406 209.1875 329.253906 209.296875 328.949219 C 209.40625 328.632812 209.546875 328.332031 209.71875 328.046875 C 209.890625 327.757812 210.089844 327.496094 210.316406 327.25 C 210.542969 327.003906 210.792969 326.789062 211.066406 326.59375 C 211.339844 326.402344 211.628906 326.238281 211.933594 326.109375 C 212.242188 325.976562 212.558594 325.875 212.882812 325.8125 C 213.210938 325.746094 213.542969 325.710938 213.875 325.714844 C 214.207031 325.71875 214.539062 325.753906 214.863281 325.824219 C 215.191406 325.898438 215.503906 326 215.808594 326.136719 Z M 215.808594 326.136719 " fill-opacity="1" fill-rule="nonzero"/><g clip-path="url(#a80f5777dd)"><path fill="#ffe9b9" d="M 281.839844 30.382812 C 281.257812 30.390625 280.699219 30.296875 280.15625 30.09375 C 279.609375 29.890625 279.125 29.59375 278.691406 29.207031 C 278.261719 28.816406 277.917969 28.363281 277.65625 27.84375 C 277.398438 27.324219 277.242188 26.777344 277.191406 26.199219 C 276.734375 19.6875 275.796875 12.710938 275.328125 6.199219 C 275.285156 5.878906 275.269531 5.558594 275.289062 5.234375 C 275.304688 4.910156 275.355469 4.59375 275.4375 4.277344 C 275.515625 3.964844 275.625 3.664062 275.765625 3.371094 C 275.90625 3.078125 276.074219 2.804688 276.269531 2.546875 C 276.464844 2.285156 276.679688 2.050781 276.921875 1.832031 C 277.164062 1.617188 277.421875 1.425781 277.703125 1.261719 C 277.980469 1.097656 278.273438 0.960938 278.578125 0.855469 C 278.882812 0.746094 279.195312 0.667969 279.515625 0.625 C 279.835938 0.578125 280.160156 0.5625 280.480469 0.582031 C 280.804688 0.601562 281.125 0.648438 281.4375 0.730469 C 281.75 0.808594 282.054688 0.917969 282.34375 1.058594 C 282.636719 1.199219 282.910156 1.367188 283.171875 1.558594 C 283.429688 1.753906 283.667969 1.972656 283.882812 2.214844 C 284.101562 2.453125 284.289062 2.714844 284.457031 2.992188 C 284.621094 3.269531 284.757812 3.5625 284.863281 3.867188 C 284.972656 4.171875 285.046875 4.484375 285.09375 4.804688 C 285.550781 11.316406 286.492188 18.289062 286.957031 24.800781 C 286.960938 25.148438 286.929688 25.496094 286.867188 25.835938 C 286.804688 26.179688 286.714844 26.515625 286.589844 26.839844 C 286.464844 27.164062 286.308594 27.476562 286.125 27.769531 C 285.941406 28.066406 285.734375 28.34375 285.496094 28.601562 C 285.261719 28.855469 285.003906 29.089844 284.726562 29.296875 C 284.445312 29.507812 284.152344 29.6875 283.839844 29.839844 C 283.523438 29.992188 283.199219 30.113281 282.863281 30.203125 C 282.527344 30.296875 282.1875 30.355469 281.839844 30.382812 Z M 281.839844 30.382812 " fill-opacity="1" fill-rule="nonzero"/></g></g></g></g></svg>